<?xml version="1.0" encoding="utf-8"?>
<!-- Generator: Adobe Illustrator 27.4.0, SVG Export Plug-In . SVG Version: 6.00 Build 0)  -->
<svg version="1.1" id="Layer_2_00000047022198008346282480000000969223862217663627_"
	 xmlns="http://www.w3.org/2000/svg" xmlns:xlink="http://www.w3.org/1999/xlink" x="0px" y="0px" viewBox="0 0 172.1 53.5"
	 style="enable-background:new 0 0 172.1 53.5;" xml:space="preserve">
<style type="text/css">
	.st0{fill:#F7CE3C;}
	.st1{fill:none;stroke:#F7CE3C;stroke-width:3.16;stroke-miterlimit:10;}
	.st2{fill:#FFFFFF;}
</style>
<path class="st0" d="M12.9,33.3H6.3L5.1,37H0l7.3-19.9h4.5L19.2,37H14L12.9,33.3L12.9,33.3z M7.4,29.5h4.3l-2.1-6.9
	C9.6,22.6,7.4,29.5,7.4,29.5z"/>
<path class="st0" d="M30.9,31.7c0-0.7-0.2-1.2-0.8-1.6s-1.4-0.8-2.6-1.2s-2.3-0.8-3.1-1.2c-2.6-1.3-3.9-3-3.9-5.2
	c0-1.1,0.3-2.1,1-2.9s1.5-1.5,2.7-2s2.5-0.7,4-0.7s2.7,0.2,3.8,0.8s2,1.2,2.7,2.2s0.9,2,0.9,3.2h-4.8c0-0.8-0.2-1.4-0.8-1.9
	s-1.2-0.7-2-0.7s-1.5,0.2-2,0.6s-0.8,0.9-0.8,1.4c0,0.5,0.3,1,0.8,1.4s1.5,0.8,2.9,1.3c1.4,0.4,2.5,0.9,3.4,1.4
	c2.2,1.2,3.2,3,3.2,5.1c0,1.7-0.7,3.1-2,4.1s-3.1,1.5-5.4,1.5c-1.6,0-3.1-0.3-4.4-0.9c-1.3-0.6-2.3-1.4-3-2.4c-0.7-1-1-2.2-1-3.5
	h4.8c0,1.1,0.3,1.8,0.8,2.4s1.5,0.8,2.7,0.8c0.8,0,1.4-0.2,1.9-0.5S30.9,32.3,30.9,31.7L30.9,31.7z"/>
<path class="st0" d="M44.9,29.6l-2,2.2V37h-4.8V17.1h4.8v8.8l1.7-2.5l4.3-6.2h5.9l-6.7,8.8L54.8,37h-5.7L44.9,29.6L44.9,29.6z"/>
<path class="st0" d="M130.4,17.1l4.4,13.9l4.4-13.9h6.3V37h-4.8v-4.7l0.5-9.5L136.4,37h-3.2l-4.8-14.2l0.5,9.5V37h-4.8V17.1
	L130.4,17.1L130.4,17.1z"/>
<path class="st0" d="M162.1,28.5h-7.6v4.8h8.9V37h-13.7V17.1h13.7v3.7h-8.9V25h7.6C162.1,25,162.1,28.5,162.1,28.5z"/>
<path class="st0" d="M167,34.9c0-0.7,0.2-1.2,0.7-1.7c0.5-0.4,1.1-0.7,1.8-0.7s1.3,0.2,1.8,0.7s0.7,1,0.7,1.7s-0.2,1.2-0.7,1.7
	s-1.1,0.7-1.8,0.7s-1.3-0.2-1.8-0.7S167,35.6,167,34.9z M171.5,30.7h-3.7l-0.6-13.6h4.9L171.5,30.7L171.5,30.7z"/>
<polygon class="st1" points="109.4,39.2 109.4,14.3 87.8,1.8 66.2,14.3 66.2,39.2 87.8,51.7 109.4,39.2 "/>
<rect x="85.5" y="36.6" class="st2" width="4.6" height="4.6"/>
<path class="st2" d="M90.1,33.1h-4.6c0-7.5,7-7,7-11.6c0-2.5-2.1-4.6-4.6-4.6s-4.6,2.1-4.6,4.6h-4.6c0-5.1,4.2-9.3,9.3-9.3
	s9.3,4.2,9.3,9.3C97.1,27.3,90.2,27.9,90.1,33.1L90.1,33.1z"/>
</svg>
