<?xml version="1.0" encoding="UTF-8"?><svg id="Layer_2" xmlns="http://www.w3.org/2000/svg" viewBox="0 0 75.32 86.97"><defs><style>.cls-1{fill:#fff;}.cls-2{fill:#84b73e;}.cls-3{fill:#072f87;}.cls-4{fill:#349cd0;}</style></defs><g id="Text"><polygon class="cls-3" points="1.07 64.61 1.07 22.36 37.66 1.24 74.25 22.36 74.25 64.61 37.66 85.73 1.07 64.61"/><path class="cls-1" d="m37.66,2.48l35.51,20.5v41.01l-35.51,20.5L2.15,63.99V22.98L37.66,2.48m0-2.48L0,21.74v43.48l37.66,21.74,37.66-21.74V21.74L37.66,0h0Z"/><path class="cls-4" d="m9.64,43.02h0c0,3.46,1.84,6.65,4.84,8.38l23.19,13.38,23.18-13.38c2.99-1.73,4.84-4.92,4.84-8.38s-3.9-5.86-7.03-4.06l-20.99,12.12-21-12.12c-3.12-1.8-7.03.45-7.03,4.06"/><path class="cls-4" d="m47.9,32.43c0,5.79-4.8,10.45-10.64,10.23-5.27-.2-9.63-4.56-9.83-9.83-.22-5.84,4.44-10.64,10.23-10.64s10.24,4.59,10.24,10.24"/><path class="cls-4" d="m47.9,32.43c0,5.79-4.8,10.45-10.64,10.23-5.27-.2-9.63-4.56-9.83-9.83-.22-5.84,4.44-10.64,10.23-10.64s10.24,4.59,10.24,10.24"/><path class="cls-2" d="m37.66,64.78l23.18-13.38c2.99-1.73,4.84-4.92,4.84-8.38s-3.91-5.86-7.03-4.06l-20.99,12.12v13.7Z"/><path class="cls-2" d="m47.9,32.43c0,5.66-4.58,10.24-10.24,10.24,5.8,0,5.64-20.48,0-20.48,5.66,0,10.24,4.59,10.24,10.24"/></g></svg>