<?xml version="1.0" encoding="UTF-8"?><svg id="Layer_2" xmlns="http://www.w3.org/2000/svg" viewBox="0 0 77.46 89.45"><defs><style>.cls-1{fill:#84b73e;}.cls-2{fill:#349cd0;}.cls-3{fill:none;stroke:#fff;stroke-miterlimit:10;stroke-width:2.15px;}</style></defs><g id="Text"><path class="cls-2" d="m10.71,44.26h0c0,3.46,1.84,6.65,4.84,8.38l23.19,13.38,23.18-13.38c2.99-1.73,4.84-4.92,4.84-8.38s-3.9-5.86-7.03-4.06l-20.99,12.12-21-12.12c-3.12-1.8-7.03.45-7.03,4.06"/><path class="cls-2" d="m48.97,33.67c0,5.79-4.8,10.45-10.64,10.23-5.27-.2-9.63-4.56-9.83-9.83-.22-5.84,4.44-10.64,10.23-10.64s10.24,4.59,10.24,10.24"/><path class="cls-2" d="m48.97,33.67c0,5.79-4.8,10.45-10.64,10.23-5.27-.2-9.63-4.56-9.83-9.83-.22-5.84,4.44-10.64,10.23-10.64s10.24,4.59,10.24,10.24"/><path class="cls-1" d="m38.73,66.02l23.18-13.38c2.99-1.73,4.84-4.92,4.84-8.38s-3.91-5.86-7.03-4.06l-20.99,12.12v13.7Z"/><path class="cls-1" d="m48.97,33.67c0,5.66-4.58,10.24-10.24,10.24,5.8,0,5.64-20.48,0-20.48,5.66,0,10.24,4.59,10.24,10.24"/><polygon class="cls-3" points="76.39 66.47 76.39 22.98 38.73 1.24 1.07 22.98 1.07 66.47 38.73 88.21 76.39 66.47 76.39 66.47"/></g></svg>