<?xml version="1.0" encoding="UTF-8"?><svg id="Layer_2" xmlns="http://www.w3.org/2000/svg" viewBox="0 0 75.32 86.97"><defs><style>.cls-1{fill:#fff;}.cls-2{fill:#84b73e;}.cls-3{fill:#072f87;}.cls-4{fill:#349cd0;}</style></defs><g id="Text"><polygon class="cls-3" points="1.07 64.61 1.07 22.36 37.66 1.24 74.25 22.36 74.25 64.61 37.66 85.73 1.07 64.61"/><path class="cls-1" d="m37.66,2.48l35.51,20.5v41.01l-35.51,20.51L2.15,63.99V22.98L37.66,2.48m0-2.48L0,21.74v43.48l37.66,21.74,37.66-21.74V21.74L37.66,0h0Z"/><path class="cls-4" d="m60.29,59.39h0c2.58-1.6,4.11-4.45,4.02-7.48l-.71-23.49-20.7-11.13c-2.67-1.44-5.91-1.34-8.49.26-2.69,1.67-2.57,5.62.22,7.12l18.74,10.07.65,21.27c.1,3.17,3.58,5.04,6.28,3.37"/><path class="cls-2" d="m63.59,28.42l-20.7-11.13c-2.67-1.44-5.91-1.34-8.49.26s-2.57,5.62.22,7.12l18.74,10.08,10.23-6.33Z"/><path class="cls-4" d="m45.14,67.57h0c1.55-.96,2.47-2.67,2.41-4.48l-.43-14.08-12.41-6.67c-1.6-.86-3.54-.8-5.09.15-1.61,1-1.54,3.37.13,4.27l11.23,6.04.39,12.75c.06,1.9,2.15,3.02,3.76,2.02"/><path class="cls-2" d="m47.12,49l-12.41-6.67c-1.6-.86-3.54-.8-5.09.15s-1.54,3.37.13,4.27l11.23,6.04,6.13-3.79Z"/><path class="cls-4" d="m19.95,55.44h0c1.28-.79,2.03-2.2,1.99-3.7l-.35-11.6-10.22-5.5c-1.32-.71-2.92-.66-4.19.13-1.33.82-1.27,2.78.11,3.52l9.26,4.98.32,10.51c.05,1.56,1.77,2.49,3.1,1.67"/><path class="cls-2" d="m21.59,40.14l-10.22-5.5c-1.32-.71-2.92-.66-4.19.13-1.33.82-1.27,2.78.11,3.52l9.26,4.98,5.05-3.13Z"/></g></svg>