<?xml version="1.0" encoding="UTF-8"?><svg id="Layer_2" xmlns="http://www.w3.org/2000/svg" viewBox="0 0 75.32 86.97"><defs><style>.cls-1{fill:#fff;}.cls-2{fill:#84b73e;}.cls-3{fill:#072f87;}.cls-4{fill:#349cd0;}</style></defs><g id="Text"><polygon class="cls-3" points="1.07 64.61 1.07 22.36 37.66 1.24 74.25 22.36 74.25 64.61 37.66 85.73 1.07 64.61"/><path class="cls-1" d="m37.66,2.48l35.51,20.5v41.01l-35.51,20.5L2.15,63.99V22.98L37.66,2.48m0-2.48L0,21.74v43.48l37.66,21.74,37.66-21.74V21.74L37.66,0h0Z"/><path class="cls-4" d="m39.7,53.73h0c0,1.76.94,3.38,2.46,4.25l11.77,6.8,11.77-6.8c1.52-.88,2.46-2.5,2.46-4.25s-1.98-2.98-3.57-2.06l-10.66,6.15-10.66-6.15c-1.59-.92-3.57.23-3.57,2.06"/><path class="cls-4" d="m59.13,48.36c0,2.94-2.44,5.31-5.4,5.19-2.68-.1-4.89-2.32-4.99-4.99-.11-2.96,2.26-5.4,5.19-5.4s5.2,2.33,5.2,5.2"/><path class="cls-4" d="m59.13,48.36c0,2.94-2.44,5.31-5.4,5.19-2.68-.1-4.89-2.32-4.99-4.99-.11-2.96,2.26-5.4,5.19-5.4s5.2,2.33,5.2,5.2"/><path class="cls-2" d="m53.93,64.78l11.77-6.8c1.52-.88,2.46-2.5,2.46-4.25s-1.98-2.98-3.57-2.06l-10.66,6.15v6.96Z"/><path class="cls-2" d="m59.13,48.36c0,2.87-2.33,5.2-5.2,5.2,2.94,0,2.86-10.4,0-10.4,2.87,0,5.2,2.33,5.2,5.2"/><path class="cls-4" d="m13.04,27.42h0c0,2.55,1.36,4.91,3.57,6.18l17.11,9.88,17.11-9.88c2.21-1.28,3.57-3.63,3.57-6.18s-2.88-4.33-5.19-2.99l-15.49,8.94-15.49-8.95c-2.31-1.33-5.19.33-5.19,3"/><path class="cls-4" d="m41.28,19.61c0,4.27-3.54,7.72-7.85,7.55-3.89-.15-7.11-3.37-7.26-7.26-.16-4.31,3.28-7.85,7.55-7.85s7.56,3.38,7.56,7.56"/><path class="cls-4" d="m41.28,19.61c0,4.27-3.54,7.72-7.85,7.55-3.89-.15-7.11-3.37-7.26-7.26-.16-4.31,3.28-7.85,7.55-7.85s7.56,3.38,7.56,7.56"/><path class="cls-2" d="m33.72,43.48l17.11-9.88c2.21-1.28,3.57-3.63,3.57-6.18s-2.88-4.33-5.19-3l-15.49,8.94v10.11Z"/><path class="cls-2" d="m41.28,19.61c0,4.17-3.38,7.56-7.56,7.56,4.28,0,4.16-15.11,0-15.11,4.17,0,7.56,3.38,7.56,7.56"/><path class="cls-4" d="m11.24,61.19h0c0,1.45.77,2.78,2.02,3.51l9.7,5.6,9.7-5.6c1.25-.72,2.02-2.06,2.02-3.51s-1.63-2.45-2.94-1.7l-8.78,5.07-8.78-5.07c-1.31-.75-2.94.19-2.94,1.7"/><path class="cls-4" d="m27.25,56.75c0,2.42-2.01,4.37-4.45,4.28-2.21-.08-4.03-1.91-4.11-4.11-.09-2.44,1.86-4.45,4.28-4.45s4.28,1.92,4.28,4.28"/><path class="cls-4" d="m27.25,56.75c0,2.42-2.01,4.37-4.45,4.28-2.21-.08-4.03-1.91-4.11-4.11-.09-2.44,1.86-4.45,4.28-4.45s4.28,1.92,4.28,4.28"/><path class="cls-2" d="m22.97,70.29l9.7-5.6c1.25-.72,2.02-2.06,2.02-3.51s-1.63-2.45-2.94-1.7l-8.78,5.07v5.73Z"/><path class="cls-2" d="m27.25,56.75c0,2.37-1.92,4.28-4.28,4.28,2.43,0,2.36-8.57,0-8.57,2.37,0,4.28,1.92,4.28,4.28"/></g></svg>