<?xml version="1.0" encoding="UTF-8"?><svg id="Layer_2" xmlns="http://www.w3.org/2000/svg" viewBox="0 0 492.57 493.35"><defs><style>.cls-1,.cls-2,.cls-3,.cls-4,.cls-5,.cls-6,.cls-7,.cls-8,.cls-9,.cls-10,.cls-11{fill:none;stroke:#00b5e2;stroke-miterlimit:10;}.cls-1,.cls-3,.cls-9{stroke-width:1.53px;}.cls-2,.cls-4,.cls-5,.cls-6,.cls-7,.cls-8,.cls-10,.cls-11{stroke-width:1.53px;}.cls-3{stroke-dasharray:0 0 17.71 5.9;}.cls-4{stroke-dasharray:0 0 17.81 5.94;}.cls-5{stroke-dasharray:0 0 17.32 5.77;}.cls-6{stroke-dasharray:0 0 17.4 5.8;}.cls-7{stroke-dasharray:0 0 17.7 5.9;}.cls-8{stroke-dasharray:0 0 17.93 5.98;}.cls-12{opacity:.25;}.cls-9{stroke-dasharray:0 0 17.4 5.8;}.cls-10{stroke-dasharray:0 0 17.79 5.93;}.cls-11{stroke-dasharray:0 0 17.8 5.93;}</style></defs><g id="Text"><g class="cls-12"><path class="cls-2" d="m1.41,236.72l-.59-8.75,5.41-5.58s.23-.28.63-.76"/><path class="cls-11" d="m10.78,217.18c6.86-7.51,21.49-22.38,44.14-39.65,41.25-31.46,91.27-57.34,144.64-74.83,68.14-22.33,125.07-25.97,160.83-25.1,31.97.78,53.11,5.08,61.03,6.98"/><path class="cls-2" d="m424.3,85.31c.16.04.28.08.38.11l8.22,1.56,4.3,7.64"/><path class="cls-5" d="m440.05,99.64c6.38,11.4,23.89,43.88,33.78,74.07,12.16,37.12,16.86,83.35,16.91,83.82l1.01,7.86-6.36,8.73c-.6.69-63.88,72.02-192.26,114.09-66.03,21.64-122.73,26.7-158.67,27.14-40.55.49-65.19-4.61-65.43-4.66l-9.86-2.67-4.2-7.11c-.97-1.57-22.82-37.02-36.26-78.04C6.61,285.96,2.47,248.23,1.65,239.6"/><polyline class="cls-2" points="234.33 487.77 226.95 492.52 218.44 490.43"/><path class="cls-6" d="m212.82,489.02c-12.49-3.29-44.64-12.56-75.49-28.18-39.23-19.87-72.01-47.73-72.33-48l-5.83-4.83-1.68-9.42c-.03-.24-2.74-25.63,2.75-66.25,6.96-51.49,24.07-105.24,49.49-155.44,32.45-64.08,70.17-106.99,96.1-131.71,28.23-26.91,48.78-38.75,51.03-40.02l7.51-4.35,8.72,2.23c.44.11,46.03,12.07,80.98,29.76,31.41,15.91,63.77,41.35,70.11,46.43"/><path class="cls-2" d="m426.37,81.12l6.52,5.86.32,8.69s0,.03,0,.07"/><path class="cls-7" d="m433.37,101.63c.15,22.69-3.19,107.5-55.6,210.99-31.44,62.09-68,105.85-93.13,131.62-23.67,24.28-42.25,37.94-47.87,41.87"/><polyline class="cls-1" points="408.19 424.49 406.48 433.1 399.19 437.97"/><path class="cls-9" d="m394.25,440.99c-10.72,6.29-40.44,22.83-73.85,33.78-41.8,13.7-84.68,17.17-85.1,17.2l-8.33.6-7.06-5.37c-.19-.15-20.06-16.19-44.91-48.82-31.5-41.36-57.41-91.49-74.94-144.98-22.38-68.29-26.06-125.33-25.21-161.17.93-39,7.08-61.92,7.78-64.41l2.96-8.81,7.02-4.17c.39-.23,41.08-24.02,78.31-36.22C203.67,7.89,243.52,2.98,252.77,1.95"/><polyline class="cls-1" points="255.65 1.64 264.38 .81 270.89 6.69"/><path class="cls-3" d="m275.19,10.74c15.45,15.14,73.89,77.66,110.41,189.09,21.69,66.17,26.78,122.99,27.24,159,.42,32.8-2.82,55.21-4.11,62.76"/><path class="cls-2" d="m412.03,426.28l-5.57,6.77-8.46.51s-.11.01-.28.03"/><path class="cls-4" d="m391.79,433.99c-9.88.48-31.06.75-59.97-3.14-51.43-6.93-105.1-24-155.22-49.38-63.98-32.4-106.82-70.08-131.5-95.99-21.59-22.67-33.46-40.39-37.94-47.64"/><path class="cls-2" d="m5.63,235.3c-.21-.37-.37-.64-.46-.81l-4.35-6.52,1.97-8.54"/><path class="cls-8" d="m4.32,213.66c3.52-12.49,14.12-47.94,28.51-76.36,15.13-29.88,38.88-60.61,45.53-69"/><polyline class="cls-2" points="80.23 65.96 85.59 59.02 94.32 58.24"/><path class="cls-10" d="m100.24,57.98c20.39-.3,106.52,1.98,212.09,55.44,62,31.39,105.68,67.91,131.41,93.02,29.03,28.33,42.85,49.36,42.98,49.57l5.04,9.37-2,7.49c-.42,1.8-10.04,42.32-29.54,80.83-17.03,33.64-39.93,62.53-46.29,70.29"/></g></g></svg>