<?xml version="1.0" encoding="UTF-8"?><svg id="Layer_2" xmlns="http://www.w3.org/2000/svg" viewBox="0 0 29.93 32.93"><defs><style>.cls-1{fill:#fff;}</style></defs><g id="Text"><path class="cls-1" d="m7.05,32.93H.6V9.73h6.45v23.19Zm.6-29c0,2.17-1.7,3.92-3.82,3.92S0,6.09,0,3.92,1.7,0,3.83,0s3.82,1.8,3.82,3.92"/><path class="cls-1" d="m16.11,11.86h.09c1.34-2.08,3.59-2.88,5.9-2.88,6.08,0,7.83,4.39,7.83,9.78v14.17h-6.45v-12.28c0-2.79.14-6.38-3.5-6.38-3.82,0-3.87,4.39-3.87,7.18v11.48h-6.45V9.73h6.45v2.13Z"/></g></svg>