<?xml version="1.0" encoding="UTF-8"?><svg id="Layer_2" xmlns="http://www.w3.org/2000/svg" viewBox="0 0 159.44 98.66"><defs><style>.cls-1{fill:#eb0028;}.cls-2{fill:#fff;}.cls-3{fill:#bd2427;}.cls-4{fill:#c6252b;}.cls-5{fill:#203e7b;}.cls-6{fill:#072f87;}</style></defs><g id="Text"><path class="cls-2" d="m156.08,21.59l-.52-2.39-2.03-1.36c-1.09-.73-27.21-17.84-73.48-17.84S7.09,17.08,5.97,17.8l-2.01,1.31-.57,2.33c-.14.57-3.4,14.14-3.4,28.79s3.27,27.97,3.41,28.53l.62,2.5,2.23,1.28c1.14.66,28.5,16.12,73.79,16.12s72.08-15.5,73.19-16.16l2.26-1.33.57-2.56c.14-.62,3.37-15.39,3.37-28.38,0-12.99-3.23-28.01-3.37-28.65"/><path class="cls-6" d="m152.37,78.5c-3.21,1.81-29.71,15.95-72.22,15.95S10.49,80.27,7.24,78.48c-.52-2.3-3.25-14.85-3.25-28.16s2.75-26.25,3.26-28.5c3.04-1.89,29.49-17.53,72.9-17.53s69.2,15.6,72.21,17.52c.49,2.41,3.27,16.58,3.27,28.51,0,11.88-2.75,25.71-3.26,28.17m1.65-57.42l-.07-.35-.29-.2c-.27-.18-6.78-4.58-19.15-9.03-11.38-4.1-30.05-8.98-54.36-8.98C33.61,2.52,6.25,20.35,5.98,20.53l-.29.19-.08.34c-.03.14-3.39,14.38-3.39,29.26s3.35,28.82,3.39,28.96l.09.36.32.19c.28.16,28.42,16.39,74.13,16.39s73.19-16.23,73.46-16.39l.33-.2.08-.37c.03-.16,3.38-15.72,3.38-28.93,0-13.21-3.35-29.08-3.38-29.24"/><path class="cls-2" d="m7.24,78.48c3.24,1.79,30.34,15.96,72.91,15.96s69-14.14,72.22-15.95c.51-2.46,3.26-16.3,3.26-28.17s-2.78-26.1-3.27-28.51c-3.01-1.92-28.85-17.52-72.21-17.52S10.29,19.92,7.25,21.82c-.51,2.26-3.26,15.12-3.26,28.5,0,13.32,2.72,25.87,3.25,28.16"/><path class="cls-6" d="m80.05,92.62c44.18,0,70.12-15.32,70.12-15.32,0,0,3.23-14.57,3.23-27.07s-3.23-27.36-3.23-27.36c0,0-25.16-16.82-70.12-16.82S9.28,22.87,9.28,22.87c0,0-3.23,13.28-3.23,27.36s3.23,27.07,3.23,27.07c0,0,26.59,15.32,70.77,15.32"/><polygon class="cls-1" points="91.42 60.11 68.22 60.11 40.4 60.11 40.4 62.48 68.22 62.48 91.42 62.48 119.24 62.48 119.24 60.11 91.42 60.11"/><path class="cls-6" d="m90.06,40.33l-2.43-1.03h4.83v2.69c-.63-.68-1.44-1.26-2.4-1.65m-22.88,4.56v-2.91c.87.97,2.19,1.86,3.91,2.59l.76.32h-4.67Zm-1.59,11.37c.24-.32.45-.67.63-1.06.17.37.38.73.62,1.06h-1.25Zm55.64-15.15v-5.73c0-3.03-.68-5.29-2.07-6.76-1.37-1.37-3.63-2.07-6.7-2.07h-11.56c-2.95,0-5.13.73-6.53,2.23-.37.43-.68.94-.94,1.5-.4-.75-.94-1.41-1.6-1.92-1.46-1.2-3.55-1.81-6.23-1.81h-11.43c-2.59,0-4.74.65-6.23,1.87-.68.56-1.21,1.23-1.61,2-.43-.9-.96-1.54-1.45-1.96h0c-1.45-1.27-3.63-1.91-6.47-1.91h-11.56c-2.69,0-4.85.7-6.26,2.02-1.42,1.33-2.18,3.44-2.18,6.1v15.5c0,2.98.68,5.22,2.02,6.65,1.31,1.4,3.49,2.12,6.49,2.12h.7c1.22,1.69,2.58,2.97,4.09,3.87.27.18.51.31.78.41,2.04,1.13,4.36,1.77,6.92,1.91l1.07.06,6.47-8.78c.3.39.65.76,1.05,1.09,1.51,1.15,3.65,1.76,6.18,1.76h0l11.42-.06c2.77,0,4.92-.67,6.41-1.98.46-.4.96-.99,1.38-1.79.35.7.76,1.35,1.31,1.86,1.43,1.25,3.58,1.91,6.21,1.91h11.56c2.85,0,5.11-.66,6.54-1.91,1.01-.89,2.23-2.68,2.23-6.14v-7.54h-13.95v-2.49h13.95Z"/><path class="cls-2" d="m19.59,24.84c-.19-.42-.41-.7-.68-.83-.26-.14-.56-.13-.88,0-.32.14-.52.36-.59.64-.07.29,0,.64.18,1.06l.72,1.62c.19.43.42.71.68.85.26.14.55.14.88,0,.32-.14.52-.36.59-.65.07-.29.01-.65-.18-1.07l-.72-1.62Zm1.83,1.12c.12.26.2.52.23.77.04.25.04.48,0,.7l1.06.49-.46.91-1.03-.46c-.12.14-.26.27-.42.39-.16.12-.33.22-.53.3-.63.28-1.23.32-1.78.11-.55-.21-.97-.65-1.28-1.33l-.72-1.6c-.3-.67-.35-1.29-.14-1.84.21-.55.63-.97,1.26-1.25.64-.28,1.23-.32,1.78-.11.55.21.98.66,1.28,1.33l.72,1.6Z"/><path class="cls-2" d="m25.12,20.2l1.47,3.84c.26.67.26,1.26.02,1.78-.24.52-.67.9-1.29,1.14-.61.24-1.18.24-1.71.01-.53-.23-.92-.68-1.17-1.34l-1.47-3.84,1.14-.44,1.47,3.84c.15.4.35.68.6.82.25.15.52.17.8.06.29-.11.48-.31.57-.58.08-.27.05-.61-.1-1.02l-1.47-3.84,1.14-.44Z"/><path class="cls-2" d="m28.96,23.09l1.02-.34-1.13-1.73h-.02s.14,2.07.14,2.07Zm1.56.49l-1.49.5.1,1.41-1.21.4-.3-6.54,1.2-.4,3.69,5.41-1.21.41-.77-1.18Z"/><polygon class="cls-2" points="34.1 22.9 36.36 22.23 36.63 23.15 33.2 24.15 31.42 18.11 32.6 17.76 34.1 22.9"/><rect class="cls-2" x="36.95" y="16.49" width="1.22" height="6.3" transform="translate(-3.78 10.27) rotate(-14.83)"/><polygon class="cls-2" points="42.65 16.13 41.21 16.47 42.45 21.67 41.26 21.95 40.02 16.75 38.62 17.09 38.39 16.16 42.43 15.2 42.65 16.13"/><polygon class="cls-2" points="46.02 17.25 46.05 17.24 46.57 14.34 47.87 14.08 46.88 18.41 47.32 20.62 46.13 20.86 45.67 18.58 43.11 15.04 44.42 14.78 46.02 17.25"/><path class="cls-2" d="m54.85,17.66c-.04-.25-.13-.43-.28-.56-.15-.12-.4-.23-.75-.32-.67-.13-1.19-.31-1.56-.55-.37-.24-.59-.61-.67-1.12-.08-.51.04-.95.36-1.33.32-.38.76-.61,1.33-.7.6-.09,1.12,0,1.54.29.42.29.67.72.75,1.3v.03s-1.18.18-1.18.18c-.05-.32-.16-.56-.33-.7-.17-.15-.39-.2-.66-.16-.23.04-.4.14-.5.31-.1.17-.14.37-.11.6.03.21.13.37.3.49.17.11.44.23.82.33.63.11,1.13.29,1.48.55.36.26.57.64.65,1.16.08.53-.04.98-.35,1.34-.32.36-.77.59-1.37.68-.59.09-1.12,0-1.59-.26-.47-.27-.75-.74-.84-1.41v-.03s1.18-.18,1.18-.18c.06.39.18.66.37.81.18.15.43.2.74.15.26-.04.44-.14.55-.3.11-.16.14-.36.11-.6"/><polygon class="cls-2" points="60.19 15.8 58.28 16.04 58.5 17.85 60.79 17.57 60.91 18.52 57.41 18.95 56.64 12.69 60.14 12.27 60.25 13.22 57.97 13.49 58.17 15.09 60.08 14.86 60.19 15.8"/><path class="cls-2" d="m62.89,14.82l.66-.06c.26-.02.45-.12.57-.29.12-.17.17-.4.14-.68-.03-.29-.12-.52-.27-.68-.15-.16-.36-.23-.61-.2l-.66.06.17,1.86Zm.09.95l.23,2.52-1.22.11-.58-6.27,1.88-.17c.62-.06,1.13.06,1.52.35.39.29.61.73.66,1.31.03.32-.02.61-.15.87-.13.25-.33.46-.6.63.34.08.59.24.76.48.17.24.27.55.3.93l.04.46c.02.18.05.36.11.55.06.19.14.32.25.4v.09s-1.25.12-1.25.12c-.11-.08-.19-.23-.23-.43-.05-.21-.08-.41-.1-.62l-.04-.44c-.03-.32-.12-.56-.27-.72-.15-.16-.35-.23-.59-.21l-.73.07Z"/><polygon class="cls-2" points="68.93 16.22 69 16.48 69.02 16.48 69.06 16.23 69.86 11.47 71.14 11.39 69.73 17.79 68.46 17.86 66.28 11.69 67.57 11.61 68.93 16.22"/><rect class="cls-2" x="72.38" y="11.33" width="1.22" height="6.3" transform="translate(-.51 2.84) rotate(-2.22)"/><path class="cls-2" d="m79.29,15.52v.03c.03.67-.13,1.18-.48,1.53-.35.34-.86.52-1.52.53-.68.01-1.22-.18-1.62-.57-.4-.39-.61-.96-.62-1.69l-.03-1.87c-.01-.73.17-1.3.55-1.71.38-.41.9-.62,1.55-.63.69-.01,1.22.15,1.6.48.37.33.56.83.56,1.51v.03s-1.19.02-1.19.02c0-.4-.08-.69-.23-.84-.15-.16-.39-.24-.72-.23-.31,0-.53.12-.68.34-.15.22-.22.56-.21,1.02l.03,1.88c0,.46.09.8.26,1.01.17.22.42.32.75.32.3,0,.52-.09.65-.25.13-.16.19-.45.19-.86l1.18-.02Z"/><polygon class="cls-2" points="83.63 14.74 81.71 14.72 81.69 16.55 83.99 16.57 83.98 17.52 80.46 17.48 80.53 11.18 84.05 11.22 84.04 12.18 81.74 12.15 81.72 13.76 83.65 13.79 83.63 14.74"/><path class="cls-2" d="m91.81,15.91v.03c-.02.67-.22,1.17-.59,1.49-.37.32-.89.46-1.55.42-.68-.04-1.2-.26-1.58-.68-.38-.42-.54-1-.51-1.73l.1-1.87c.04-.73.26-1.29.67-1.67.41-.38.94-.56,1.59-.52.69.04,1.21.23,1.56.59.35.35.5.87.45,1.55v.03s-1.19-.06-1.19-.06c.02-.4-.03-.69-.17-.86-.13-.17-.37-.26-.7-.28-.31-.02-.54.08-.7.29-.17.21-.26.55-.28,1l-.1,1.88c-.02.46.04.8.19,1.03.15.23.39.35.73.37.3.02.52-.05.67-.2.14-.15.22-.43.24-.84l1.18.06Z"/><path class="cls-2" d="m96.37,14.19c.04-.46-.02-.81-.19-1.06-.17-.25-.42-.39-.77-.42-.35-.03-.63.06-.83.28-.2.22-.32.55-.36,1.01l-.15,1.76c-.04.47.02.82.18,1.07s.42.39.77.42c.35.03.63-.06.83-.28.2-.22.32-.56.36-1.02l.15-1.76Zm1.06,1.87c-.06.74-.32,1.3-.77,1.68-.45.38-1.03.54-1.72.48-.69-.06-1.23-.31-1.61-.76-.38-.45-.54-1.04-.47-1.78l.15-1.75c.06-.74.32-1.3.77-1.68.45-.38,1.02-.54,1.71-.49.69.06,1.23.32,1.61.77.38.45.54,1.05.48,1.78l-.15,1.75Z"/><polygon class="cls-2" points="102.77 18.96 101.56 18.81 100.06 14.58 100.03 14.59 99.55 18.57 98.34 18.43 99.09 12.17 100.3 12.32 101.81 16.55 101.83 16.55 102.31 12.56 103.52 12.7 102.77 18.96"/><polygon class="cls-2" points="108.46 14.41 107 14.19 106.2 19.47 104.98 19.29 105.79 14 104.37 13.79 104.51 12.84 108.61 13.46 108.46 14.41"/><path class="cls-2" d="m110.37,16.64l.65.12c.26.05.47,0,.63-.12.16-.13.27-.34.32-.62.05-.29.03-.53-.07-.73-.1-.2-.28-.32-.54-.36l-.66-.12-.34,1.83Zm-.17.94l-.46,2.49-1.2-.22,1.15-6.19,1.86.34c.62.11,1.07.36,1.36.75.29.39.39.86.28,1.44-.06.32-.19.58-.38.79s-.44.36-.75.44c.3.17.5.39.6.67.1.28.11.6.04.98l-.08.45c-.03.17-.05.36-.04.56,0,.2.05.35.14.46l-.02.09-1.24-.23c-.08-.11-.12-.27-.11-.48.01-.21.04-.42.07-.62l.08-.43c.06-.32.04-.57-.06-.77-.1-.2-.27-.32-.51-.36l-.72-.13Z"/><path class="cls-2" d="m115.54,18.85l1.05.23-.08-2.07h-.03s-.94,1.83-.94,1.83Zm1.09,1.22l-1.54-.34-.64,1.25-1.24-.27,3.11-5.77,1.23.27.38,6.54-1.25-.28-.06-1.41Z"/><path class="cls-2" d="m123.1,21.08v.03c-.16.66-.45,1.1-.88,1.34-.43.24-.96.27-1.6.1-.66-.17-1.13-.5-1.41-.99-.28-.49-.33-1.09-.15-1.8l.47-1.81c.18-.71.51-1.21.99-1.51.47-.29,1.03-.36,1.66-.19.67.17,1.14.47,1.41.89s.32.95.14,1.6l-.02.02-1.15-.3c.1-.39.1-.68,0-.87-.1-.19-.31-.33-.63-.41-.3-.08-.55-.03-.75.15-.2.17-.36.48-.48.92l-.47,1.82c-.12.44-.12.79-.02,1.05.1.26.32.42.64.51.29.08.52.05.69-.07.17-.12.3-.38.41-.78l1.14.3Z"/><polygon class="cls-2" points="128.63 19.18 127.21 18.76 125.68 23.88 124.51 23.53 126.04 18.41 124.65 18 124.93 17.08 128.9 18.27 128.63 19.18"/><path class="cls-2" d="m132.13,21.74c.15-.43.17-.79.07-1.07-.1-.28-.32-.48-.65-.59-.34-.11-.63-.09-.87.07-.24.16-.44.46-.59.9l-.57,1.67c-.15.44-.18.8-.08,1.08.1.28.31.48.65.59.34.11.63.09.88-.07.25-.16.45-.46.6-.91l.57-1.67Zm.58,2.07c-.24.7-.63,1.18-1.16,1.44-.53.26-1.12.27-1.78.05-.66-.23-1.12-.6-1.37-1.13-.26-.53-.27-1.14-.03-1.84l.57-1.66c.24-.7.62-1.18,1.15-1.44.53-.26,1.12-.28,1.78-.06.66.22,1.12.6,1.38,1.14.26.53.27,1.15.03,1.85l-.57,1.66Z"/><path class="cls-2" d="m135.28,23.5l.61.24c.24.1.46.1.64,0,.18-.1.33-.28.44-.55.11-.27.13-.52.07-.73-.06-.21-.21-.36-.46-.46l-.62-.24-.68,1.74Zm-.35.89l-.93,2.35-1.14-.45,2.31-5.86,1.75.69c.58.23.98.56,1.2,1,.21.44.21.92,0,1.47-.12.3-.29.54-.52.71-.23.17-.5.26-.82.29.27.22.42.48.46.77.04.29,0,.61-.15.97l-.17.43c-.06.16-.11.34-.15.54-.03.19-.02.35.05.47l-.03.08-1.18-.46c-.06-.12-.07-.29-.01-.49.05-.2.11-.4.19-.6l.16-.41c.12-.3.15-.55.09-.77-.06-.21-.2-.36-.43-.46l-.68-.27Z"/><path class="cls-2" d="m140.65,27.78c.1-.23.13-.44.07-.62-.06-.19-.21-.41-.45-.67-.49-.47-.83-.91-1.01-1.31-.18-.4-.16-.83.06-1.31.21-.47.56-.78,1.03-.92.47-.14.97-.09,1.5.15.56.25.93.61,1.13,1.08.2.47.17.97-.08,1.49l-.02.02-1.08-.49c.14-.3.17-.55.11-.77-.06-.21-.22-.38-.46-.49-.21-.1-.41-.1-.59-.02-.18.09-.32.24-.42.45-.09.19-.09.39-.02.57.08.19.24.43.5.73.47.44.78.86.94,1.27.16.41.13.85-.09,1.33-.22.49-.57.8-1.03.93-.46.13-.97.07-1.52-.18-.54-.25-.94-.61-1.19-1.09-.25-.48-.22-1.03.07-1.64l.02-.02,1.08.49c-.16.36-.21.65-.14.88.07.22.25.4.54.53.24.11.45.13.63.05.18-.08.32-.22.42-.44"/><path class="cls-2" d="m74.17,57.26c-2.2,0-3.87-.52-4.97-1.36-1.1-.9-1.68-2.26-1.68-4v-5.04h10.91v1.94c0,.65.13,1.23.32,1.49.26.26.65.45,1.16.45s.9-.19,1.16-.45c.26-.32.39-.9.39-1.68,0-.84-.13-1.48-.32-1.81-.26-.32-.9-.71-1.81-.97l-7.49-3.1c-1.68-.71-2.84-1.55-3.42-2.32-.58-.78-.9-2-.9-3.42v-3.1c0-1.68.58-3.04,1.68-3.94,1.1-.9,2.78-1.42,4.97-1.42h11.43c2.2,0,3.87.45,4.97,1.36,1.16.9,1.74,2.33,1.74,4v3.42h-10.98v-.32c0-.65-.13-1.16-.39-1.48-.26-.32-.65-.52-1.16-.52-.39,0-.77.13-1.03.39-.26.26-.39.65-.39,1.03s.13.78.32,1.03c.26.26.9.58,1.81.97l8.78,3.75c1.1.45,1.94,1.16,2.33,2,.45.84.71,2.2.71,3.94v3.1c0,2.07-.58,3.62-1.61,4.52-1.1.97-2.84,1.49-5.1,1.49l-11.43.06Z"/><path class="cls-2" d="m119.24,45.57v5.55c0,2.13-.52,3.74-1.55,4.65-1.03.9-2.84,1.42-5.23,1.42h-11.56c-2.2,0-3.88-.52-4.91-1.42-1.03-.97-1.55-2.58-1.55-4.65v-15.76c0-2.45.52-4.26,1.42-5.29.97-1.03,2.71-1.55,5.04-1.55h11.56c2.52,0,4.33.52,5.29,1.49.97,1.03,1.49,2.84,1.49,5.36v3.74h-10.85v-2.07c0-.71-.13-1.29-.39-1.55-.26-.32-.71-.52-1.23-.52s-.9.19-1.1.52c-.26.32-.39.9-.39,1.55v11.75c0,.65.13,1.23.32,1.49.26.26.65.45,1.16.45s.97-.19,1.23-.45c.26-.26.39-.84.39-1.49v-3.23h10.85Z"/><path class="cls-2" d="m52.74,50.56h0c-.86,0-1.57-.71-1.57-1.57v-12.47c0-.86.71-1.57,1.57-1.57s1.57.71,1.57,1.57v12.47c0,.86-.71,1.57-1.57,1.57m10.84-20.61c-1.03-.9-2.78-1.42-5.17-1.42h-11.56c-2.2,0-3.87.52-4.91,1.49-1.03.97-1.55,2.58-1.55,4.65v15.5c0,2.45.52,4.26,1.48,5.29.9.97,2.65,1.48,5.04,1.48h1.74c1.16,1.81,2.52,3.23,4.13,4.2.19.13.32.19.52.26,1.81,1.03,3.87,1.61,6.2,1.74l3.62-4.91c-1.55,0-2.84-.13-3.62-.32-.78-.13-1.36-.52-1.74-.97h.65c2.46,0,4.26-.52,5.3-1.55.97-.97,1.48-2.78,1.48-5.23v-15.5c0-2.2-.58-3.81-1.61-4.71"/><path class="cls-5" d="m95.45,85.59h.11c.09,0,.18,0,.18-.11,0-.09-.08-.1-.15-.1h-.14v.22h0Zm-.11-.3h.26c.16,0,.24.06.24.19,0,.12-.08.17-.18.18l.19.3h-.11l-.18-.29h-.11v.29h-.11v-.68h0Zm.23.84c.27,0,.48-.21.48-.5s-.21-.49-.48-.49-.48.21-.48.49.21.5.48.5m0-1.08c.32,0,.58.25.58.58s-.27.58-.58.58-.59-.25-.59-.58.27-.58.59-.58"/><path class="cls-1" d="m61.48,69.39s10-4.17,18.9-4.17,18.29,3.93,18.29,3.93c0,0,.71,4.55.71,7.44s-.66,6.73-.66,6.73c0,0-8.29,4.17-18.05,4.17s-19.14-3.93-19.14-3.93c0,0-.9-4.41-.85-7.11.05-2.7.8-7.06.8-7.06"/><path class="cls-3" d="m61.68,83.43c.98.39,9.87,3.88,18.98,3.88s17-3.68,17.89-4.11c.1-.6.65-4.01.65-6.61s-.59-6.63-.69-7.31c-1-.4-9.83-3.88-18.12-3.88s-17.72,3.7-18.74,4.12c-.11.66-.74,4.5-.79,6.93-.04,2.43.7,6.32.83,6.97m18.98,4.24c-9.68,0-19.11-3.91-19.21-3.95l-.09-.04-.02-.09s-.9-4.46-.86-7.14c.05-2.68.8-7.04.81-7.09l.02-.1.09-.04c.1-.04,10.13-4.18,18.97-4.18s18.26,3.91,18.36,3.95l.09.04.02.1s.71,4.59.71,7.46-.66,6.72-.67,6.76l-.02.09-.08.04c-.08.04-8.44,4.19-18.13,4.19"/><path class="cls-3" d="m79.81,77.13c-2.37,0-4.3,1.93-4.3,4.3s1.93,4.3,4.3,4.3,4.3-1.93,4.3-4.3c0-2.37-1.93-4.3-4.3-4.3"/><path class="cls-3" d="m88.53,77.13c-2.37,0-4.3,1.93-4.3,4.3s1.93,4.3,4.3,4.3,4.3-1.93,4.3-4.3c0-2.37-1.93-4.3-4.3-4.3"/><path class="cls-3" d="m71.06,77.13c-2.37,0-4.3,1.93-4.3,4.3s1.93,4.3,4.3,4.3,4.3-1.93,4.3-4.3-1.93-4.3-4.3-4.3"/><path class="cls-1" d="m79.81,85.33c-2.15,0-3.89-1.74-3.89-3.89s1.74-3.89,3.89-3.89,3.89,1.74,3.89,3.89-1.74,3.89-3.89,3.89"/><path class="cls-2" d="m79.81,77.66c-2.08,0-3.77,1.69-3.77,3.77s1.69,3.77,3.77,3.77,3.77-1.69,3.77-3.77-1.69-3.77-3.77-3.77m0,7.78c-2.21,0-4.01-1.8-4.01-4.01s1.8-4.01,4.01-4.01,4.01,1.8,4.01,4.01c0,2.21-1.8,4.01-4.01,4.01"/><path class="cls-2" d="m79.83,84.13c-1.95.08-2.44-1.85-2.44-1.85,0,0,.45.37.89.42.01-.21.01-.34-.17-.67-.19-.35-.36-.59-.41-.89.23.21.23.23.43.36,0,0,.12.17.43.37.16-.36.07-.76.14-1.06.11.07.28.48.43.74.1-.54.02-.88.04-1.18.35.39.25.48.58.93.19-.71.06-.72.12-1.23.4.36.46,1.15.46,1.15,0,0,.11-.33.36-.5.07.28,0,.54-.04,1,.31-.27.29-.56.75-.62-.29.53-.32.6-.26.88.23-.19.4-.34.54-.34-.04.48-.45.78-.71,1.22.66.09.87-.17,1.27-.43-.03.3-.68,1.63-2.44,1.7m1.83-1.77c.1-.33.74-.48.66-1.85-.23.58-.68.77-.68.77,0,0,.48-1.38.06-1.64-.07.33-.03.86-.78.97.23-.36.3-.36.27-.68-.04-.44-.39-.68-.64-1.06.01.33.28.8.15,1.06-.11.24-.09.3-.24.42-.16-.2-.01-.4-.22-.63-.37-.41-.45-.72-.22-1.33-.23.04-.53.71-.42,1.18.11.48.02.58-.05.74-.2-.13-.39-.48-.39-.84,0-.33.17-.59.19-.77-.25.26-.66.67-.52,1.45.14.74-.02.01-.41-.23-.34-.21-.24-.42-.29-.9-.06.45-.4.68-.07,1.39.24.52.2.49.19.86-.23-.18-.27-.26-.63-.48-.33-.21-.28-.49-.29-.8-.11.35-.34.83.03,1.48.44.75.26.71.26.71,0,0-.8-.42-.93-.77-.13-.35.13,3.22,3.12,3.06,2.99-.16,3.15-2.93,3.15-2.93,0,0-.45.7-1.3.82"/><path class="cls-6" d="m88.53,85.33c-2.15,0-3.89-1.74-3.89-3.89s1.74-3.89,3.89-3.89,3.89,1.74,3.89,3.89c0,2.15-1.74,3.89-3.89,3.89"/><path class="cls-2" d="m88.53,77.66c-2.08,0-3.77,1.69-3.77,3.77s1.69,3.77,3.77,3.77,3.77-1.69,3.77-3.77-1.69-3.77-3.77-3.77m0,7.78c-2.21,0-4.01-1.8-4.01-4.01s1.8-4.01,4.01-4.01,4.01,1.8,4.01,4.01c0,2.21-1.8,4.01-4.01,4.01"/><path class="cls-2" d="m90.39,84.03s-.05,0-.06,0h-3.97s0-.24,0-.24h3.98c.06,0,.18,0,.25-.06.04-.04.06-.1.06-.18,0-.09-.02-.16-.07-.2-.07-.07-.19-.07-.19-.07h-3.65s-.25.01-.4-.14c-.08-.08-.13-.19-.13-.32,0-.35.29-.48.48-.48h3.64c.05,0,.22,0,.28-.07.02-.02.03-.04.03-.08,0-.18-.3-.22-.31-.22h-3.86s-.02,0-.02,0c-.01,0-.33-.1-.33-.5,0-.33.29-.46.44-.48h3.69c.08.01.26.02.35-.05.04-.04.06-.09.06-.17,0-.09-.02-.15-.07-.19-.09-.07-.24-.06-.29-.05h-3.67c-.16-.02-.43-.15-.43-.46,0-.36.32-.51.34-.52h.05s3.68,0,3.68,0c.05.01.2.03.29-.04.06-.05.09-.13.09-.26,0-.05-.01-.08-.04-.1-.09-.08-.31-.08-.38-.07h-3.76s0-.24,0-.24h3.74s.36-.04.55.12c.08.07.12.17.12.28,0,.2-.06.36-.19.45-.18.13-.41.1-.48.08h-3.6s-.18.12-.18.29c0,.18.19.22.21.22h3.63s.28-.05.47.1c.07.06.16.17.16.38,0,.19-.08.29-.15.35-.19.16-.49.11-.52.11h-3.65s-.22.04-.22.24c0,.18.1.25.14.27h3.84c.21.02.53.14.53.46,0,.1-.04.19-.11.25-.16.15-.43.14-.46.13h-3.64c-.06,0-.24.02-.24.24,0,.07.02.11.05.15.07.06.19.08.23.07h3.65s.21-.01.36.13c.1.09.14.22.14.38,0,.19-.08.3-.14.36-.12.11-.28.12-.37.12"/><path class="cls-6" d="m71.06,85.33c-2.15,0-3.89-1.74-3.89-3.89s1.74-3.89,3.89-3.89,3.89,1.74,3.89,3.89-1.74,3.89-3.89,3.89"/><path class="cls-2" d="m71.06,77.66c-2.08,0-3.77,1.69-3.77,3.77s1.69,3.77,3.77,3.77,3.77-1.69,3.77-3.77-1.69-3.77-3.77-3.77m0,7.78c-2.21,0-4.01-1.8-4.01-4.01s1.8-4.01,4.01-4.01,4.01,1.8,4.01,4.01-1.8,4.01-4.01,4.01"/><path class="cls-2" d="m72.07,83.76c-.24.33-.55.48-.92.48-.03-.05-.04-.07,0-.16.42-.07.58-.16.84-.57.26-.4.21-1.22.19-1.54.11.33.31,1.22-.12,1.8m-1.13-.07c-.08-.05-.01-.14-.01-.14,0,0,.3.03.55-.2.12-.11.25-.05.09.11-.16.16-.28.22-.63.24m.09.55c.02.05-.22,0-.24-.06-.02-.05.27-.15.24-.08-.03.07-.02.08,0,.14m1.42-2.41c-.38-.92-.72-1.47-1.38-3.45-.82,2.29-.99,2.35-1.38,3.4-.36.99-.39,2.71,1.34,2.71s1.7-1.94,1.41-2.66"/><polygon class="cls-4" points="77.38 72.11 73.34 72.11 73.34 69.78 70.92 69.78 70.92 76.66 73.39 76.66 73.39 74.1 77.38 74.1 77.38 76.66 79.76 76.66 79.76 69.78 77.38 69.78 77.38 72.11"/><path class="cls-4" d="m86.32,74.04l.09.36s.05.24-.07.4c-.1.13-.31.19-.61.19h-2.61c-.06,0-.11,0-.17,0-.21,0-.37,0-.44-.06-.07-.07-.15-.27-.15-.84v-2.19s0-.14.06-.2c.05-.06.15-.07.22-.07h3.33c.09,0,.38.04.38.48v.3h2.42v-1.15s0-.5-.38-.9c-.36-.38-.94-.57-1.7-.57h-5.16c-.24,0-.71.04-1.09.39-.34.32-.51.79-.51,1.4v3.57s-.1.64.32,1.13c.3.34.76.52,1.37.52.53,0,1.18,0,1.84,0h.24c1.14,0,2.44,0,2.78,0h.05c.48,0,1.2-.16,1.67-.61.33-.32.5-.75.5-1.25,0-.12.02-.31.14-.52l.02-.04v-.06l-.17-.28h-2.38Z"/><path class="cls-4" d="m97.77,72.41v-1.15s0-.5-.38-.9c-.36-.37-.94-.56-1.7-.56h-5.16c-.2,0-.69.03-1.09.39-.34.32-.51.79-.51,1.4v3.57s-.1.64.33,1.13c.3.34.76.52,1.37.52.53,0,1.18,0,1.84,0h.07c1.22,0,2.59,0,2.94,0h.05c.48,0,1.2-.16,1.67-.61.33-.32.5-.75.5-1.25,0-.29.02-.54.02-.58l.03-.32h-2.44l.09.36s.05.24-.07.39c-.1.13-.31.19-.61.19h-2.87c-.17,0-.29,0-.35-.06-.07-.07-.15-.27-.15-.84v-2.19s0-.14.06-.2c.04-.04.12-.07.22-.07h3.33c.09,0,.38.04.38.48v.3h2.42Z"/><path class="cls-4" d="m68.73,71.99c-.01.41-.14.43-.35.43h-1.26s-2.29,0-2.29,0v-.86c.27,0,.74,0,1.26,0h2.29c.2,0,.34.03.35.43m1.76-1.7c-.29-.32-.78-.48-1.45-.48h-6.5v6.69h2.24v-2.42h4.4c.18,0,.81,0,1.23-.37.23-.2.35-.48.36-.81.04-1.01,0-1.81,0-1.89,0-.08,0-.42-.27-.72"/><path class="cls-2" d="m68.38,72.7h-1.26c-.35,0-.73,0-1.09,0-.11,0-.21,0-.32,0h-.56c-.17,0-.31,0-.4,0-.03,0-.07,0-.09,0h-.12s0-1.44,0-1.44h.12c.19,0,.77,0,1.43,0h2.29c.42,0,.63.23.64.73-.01.49-.21.71-.64.71m2.1-1.7s.02-.28-.19-.52c-.24-.26-.65-.39-1.24-.39h-6.21v6.12h1.67v-2.42h4.69s.66.04,1.03-.3c.17-.15.25-.35.26-.61.04-1.05,0-1.88,0-1.88"/><polygon class="cls-2" points="71.21 70.08 73.05 70.08 73.05 72.4 77.68 72.4 77.68 70.08 79.47 70.08 79.47 76.36 77.68 76.36 77.68 73.8 73.1 73.8 73.1 76.36 71.21 76.36 71.21 70.08"/><path class="cls-2" d="m80.24,71.58v3.62s-.19,1.3,1.4,1.3,4.33-.02,4.86,0c.53.02,1.92-.23,1.92-1.57,0-.34.02-.6.02-.6h-1.74s.24.95-.97.95h-2.61c-.63,0-1.06.14-1.06-1.2v-2.17s-.05-.58.58-.58h3.33s.68,0,.68.77h1.83v-.87s.04-1.16-1.79-1.16h-5.16s-1.3-.1-1.3,1.5"/><path class="cls-2" d="m89.22,71.59v3.62s-.19,1.3,1.4,1.3,4.33-.02,4.86,0c.53.02,1.92-.23,1.92-1.57,0-.34.02-.6.02-.6h-1.74s.24.95-.97.95h-2.61c-.63,0-1.06.14-1.06-1.19v-2.17s-.05-.58.58-.58h3.33s.68,0,.68.77h1.83v-.87s.04-1.16-1.79-1.16h-5.16s-1.3-.1-1.3,1.5"/><path class="cls-2" d="m4.79,54.33c11.07-3.05,22.18-5.43,33.3-7.13v-1.48c-11.12,1.68-22.23,4.03-33.3,7.05v1.55Z"/><path class="cls-2" d="m154.29,52.52c-10.98-2.96-21.99-5.26-33.01-6.9v1.48c11.02,1.66,22.03,3.98,33.01,6.96v-1.54Z"/></g></svg>