<?xml version="1.0" encoding="UTF-8"?><svg id="Layer_2" xmlns="http://www.w3.org/2000/svg" viewBox="0 0 39.46 32.64"><defs><style>.cls-1{fill:#fff;}</style></defs><g id="Text"><path id="_64" class="cls-1" d="m39.46,3.95c-1.43.62-2.97,1.05-4.57,1.24-.01-.03-.02-.06-.04-.09,1.7-1,3.02-2.58,3.66-4.48-.49.3-2.87,1.64-5.19,2.08-1.51-1.66-3.69-2.7-6.12-2.7-5.12,0-8.28,4.2-8.28,8.28,0,.32.15,1.63.18,1.71-6.88-.15-12.98-3.46-16.91-8.54-2.81,5.12.13,9.56,2.15,11.15-1.17-.02-2.29-.27-3.31-.72.21,3.94,3.06,7.18,6.82,7.98-1.5.42-3.31.1-4-.08,1.11,3.3,4.15,5.71,7.77,5.88C6.08,29.74.1,29.33,0,29.32c3.52,2.11,7.63,3.35,12.03,3.32,16.12-.1,24.4-14.41,23.41-24.68,1.76-.82,3.19-2.25,4.01-4.02Z"/></g></svg>