<?xml version="1.0" encoding="UTF-8"?><svg id="Layer_2" xmlns="http://www.w3.org/2000/svg" viewBox="0 0 45.68 31.98"><defs><style>.cls-1{fill:#fff;}</style></defs><g id="Text"><g id="g7433"><path class="cls-1" d="m44.74,5c-.53-1.96-2.07-3.49-4.03-4.02-3.57-.98-17.88-.98-17.88-.98,0,0-14.3,0-17.86.94C3.05,1.47,1.47,3.04.94,5c-.94,3.58-.94,10.99-.94,10.99,0,0,0,7.46.94,11,.53,1.94,2.07,3.49,4.03,4.02,3.61.98,17.86.98,17.86.98,0,0,14.31,0,17.88-.94,1.96-.53,3.5-2.07,4.03-4.03.94-3.57.94-10.99.94-10.99,0,0,.04-7.44-.94-11.02Zm-26.45,17.84v-13.69l11.89,6.84-11.89,6.85Z"/></g></g></svg>